<svg xmlns="http://www.w3.org/2000/svg" version="1.1" xmlns:xlink="http://www.w3.org/1999/xlink" width="2000" height="437" viewBox="0 0 2000 437"><svg xml:space="preserve" width="2000" height="437" data-version="2" data-id="lg_6zQFy4SM559dDLHLuA" viewBox="0 0 807 437" x="0" y="0"><rect width="100%" height="100%" fill="transparent"></rect><path fill="#aa40e3" d="M742.98 8.079v46.546h-55.855V8.079h-55.856v46.546h-55.855V8.079H519.56v107.056l46.546 18.618v195.493l-46.546 37.237v60.51h279.276v-60.51l-46.546-37.237V133.753l46.546-18.618V8.079zm-74.474 256.003h-18.618V170.99h18.618zM114.635 431.295q-55.75 0-81.11-29.43t-25.36-88.76v-44.02h86.37v44.26q0 16.75 4.19 28.35 4.19 11.6 18.78 11.6 14.84 0 18.9-12.56 4.07-12.56 4.07-41.03v-10.53q0-21.77-7.3-38.04-7.29-16.27-28.59-16.27-2.63 0-4.66.12-2.04.12-3.47.36v-75.61q21.77 0 33.25-9.69 11.49-9.69 11.49-32.41 0-35.65-20.58-35.65-13.4 0-18.06 10.4-4.67 10.41-4.67 26.44v12.68h-87.09q-.24-2.87-.36-6.94-.12-4.06-.12-7.89 0-57.9 27.04-84.94 27.04-27.03 82.78-27.03 107.67 0 107.67 111.97 0 31.1-8.37 51.32-8.38 20.22-31.11 28.35 17.95 8.61 26.56 22.01 8.61 13.4 11.24 33.26 2.64 19.86 2.64 48.09 0 63.16-26.44 97.38-26.44 34.21-87.69 34.21"></path><rect width="220.6" height="426.59" x="-110.3" y="-213.29" fill="none" rx="0" ry="0" transform="translate(118.97 218.5)"></rect><path fill="#aa40e3" d="M259.625 426.515V5.415h115.8q45.46 0 68.43 25.24 22.97 25.25 22.97 73.82v197.14q0 59.82-20.94 92.36-20.93 32.54-73.33 32.54Zm84.7-74.41h14.59q23.21 0 23.21-22.49v-217.25q0-21.05-5.62-27.15-5.62-6.11-22.85-6.11h-9.33Z"></path><rect width="207.2" height="421.1" x="-103.6" y="-210.55" fill="none" rx="0" ry="0" transform="translate(363.73 216.47)"></rect></svg></svg>